<svg xmlns="http://www.w3.org/2000/svg" version="1.1" xmlns:xlink="http://www.w3.org/1999/xlink" xmlns:svgjs="http://svgjs.dev/svgjs" width="2000" height="1247" viewBox="0 0 2000 1247"><g transform="matrix(1,0,0,1,-1.2121212121212466,0.504858299595071)"><svg viewBox="0 0 396 247" data-background-color="#ffffff" preserveAspectRatio="xMidYMid meet" height="1247" width="2000" xmlns="http://www.w3.org/2000/svg" xmlns:xlink="http://www.w3.org/1999/xlink"><defs></defs><g id="tight-bounds" transform="matrix(1,0,0,1,0.2400000000000091,-0.09999999999999432)"><svg viewBox="0 0 395.52 247.2" height="247.2" width="395.52"><g><svg></svg></g><g><svg viewBox="0 0 395.52 247.2" height="247.2" width="395.52"><g transform="matrix(1,0,0,1,46.82538461538462,37.08)"><svg viewBox="0 0 301.86923076923074 173.04" height="173.04" width="301.86923076923074"><g><svg viewBox="0 0 301.86923076923074 173.04" height="173.04" width="301.86923076923074"><g><svg viewBox="0 0 301.86923076923074 173.04" height="173.04" width="301.86923076923074"><g><svg viewBox="0 0 301.86923076923074 173.04" height="173.04" width="301.86923076923074"><g><svg viewBox="0 0 301.86923076923074 173.04" height="173.04" width="301.86923076923074"><g><svg viewBox="0 0 301.86923076923074 173.04" height="173.04" width="301.86923076923074"><g transform="matrix(1,0,0,1,0,0)"><svg width="301.86923076923074" viewBox="3.6100001335144043 -35.54999923706055 62.01000213623047 35.54999923706055" height="173.04" data-palette-color="#000000"><path d="M31.81-35.55L31.81 0 25.63 0 9.79-25.22 9.79 0 3.61 0 3.61-35.55 9.79-35.55 25.68-10.23 25.68-35.55 31.81-35.55ZM49.34 0L39.11 0 39.11-35.55 49.61-35.55Q54.32-35.55 57.97-33.45 61.62-31.35 63.62-27.49 65.62-23.63 65.62-18.65L65.62-18.65 65.62-16.87Q65.62-11.82 63.61-7.98 61.59-4.15 57.87-2.08 54.15 0 49.34 0L49.34 0ZM49.61-30.57L45.29-30.57 45.29-4.93 49.31-4.93Q54.17-4.93 56.77-7.97 59.37-11.01 59.42-16.7L59.42-16.7 59.42-18.68Q59.42-24.46 56.91-27.51 54.39-30.57 49.61-30.57L49.61-30.57Z" opacity="1" transform="matrix(1,0,0,1,0,0)" fill="#000000" class="undefined-text-0" data-fill-palette-color="primary" id="text-0"></path></svg></g></svg></g></svg></g></svg></g></svg></g></svg></g></svg></g><g><path d="M0 247.2v-247.2h395.52v247.2zM379.915 231.595v-215.99h-364.31v215.99z" fill="#000000" data-fill-palette-color="tertiary"></path></g></svg></g></svg><rect width="395.52" height="247.2" fill="none" stroke="none" visibility="hidden"></rect></g></svg></g></svg>